<svg xmlns="http://www.w3.org/2000/svg" width="120" height="150" viewBox="0 0 300 375" role="img" aria-labelledby="title desc">
  <title id="title">Discard an opportunity</title>
  <desc id="desc">A political briefing card sliding into a waste-paper basket.</desc>
  <defs>
    <linearGradient id="paper" x2="0" y2="1"><stop stop-color="#fffdf5"/><stop offset="1" stop-color="#ded4bd"/></linearGradient>
    <linearGradient id="bin" x2="0" y2="1"><stop stop-color="#c51f36"/><stop offset="1" stop-color="#731326"/></linearGradient>
  </defs>
  <rect width="300" height="375" fill="#13243a"/>
  <rect x="8" y="8" width="284" height="359" rx="12" fill="#eee5d2" stroke="#fff9eb" stroke-width="4"/>
  <g transform="rotate(-10 144 146)">
    <rect x="58" y="55" width="172" height="194" rx="7" fill="url(#paper)" stroke="#13243a" stroke-width="7"/>
    <path d="M82 91h123M82 126h98M82 161h123M82 196h73" stroke="#13243a" stroke-width="12"/>
    <circle cx="194" cy="203" r="20" fill="none" stroke="#c51f36" stroke-width="8"/>
    <path d="m181 203 9 9 17-21" fill="none" stroke="#c51f36" stroke-width="7"/>
  </g>
  <path d="M67 224h166l-17 101H84Z" fill="url(#bin)" stroke="#13243a" stroke-width="8"/>
  <path d="M57 216h186M105 238l7 66M150 238v66M195 238l-7 66" stroke="#f3d7d9" stroke-width="7"/>
  <text x="150" y="350" text-anchor="middle" fill="#13243a" font-family="Arial,sans-serif" font-size="23" font-weight="900" letter-spacing="4">DISCARD</text>
</svg>
